<svg width="21" height="43" viewBox="0 0 21 43" fill="none" xmlns="http://www.w3.org/2000/svg">
<path d="M2.964 21.5232H4.381V20.7042C5.772 20.4832 6.76 19.5472 6.76 18.1042C6.76 16.7262 5.785 15.8812 3.627 15.0882C3.276 14.9582 2.613 14.5682 2.509 14.1132C2.431 13.7752 2.444 13.2032 3.146 13.0212C4.082 12.7742 4.901 13.2162 5.226 13.9572L6.591 13.3982C6.201 12.3842 5.317 11.7472 4.381 11.5132V10.6292H2.964V11.4742L2.873 11.4872C1.495 11.7992 0.806 12.7612 0.806 13.7752C0.806 15.2442 1.833 16.0112 3.029 16.5052C4.459 17.0902 5.096 17.4282 5.083 18.1952C5.07 18.8972 4.368 19.3002 3.575 19.1702C2.912 19.0662 2.249 18.7542 1.976 17.6622L0.52 18.0392C0.884 19.4952 1.768 20.4052 2.964 20.6782V21.5232Z" fill="#301B3F"/>
<rect x="18.728" width="2" height="44" rx="1" transform="rotate(15 18.728 0)" fill="#301B3F"/>
</svg>
