<svg width="38" height="40" viewBox="0 0 38 40" fill="none" xmlns="http://www.w3.org/2000/svg">
<path d="M18.1411 0L19.8589 0C24.1471 0 27.2074 0.742605 29.8148 2.13706C32.4222 3.53152 34.4685 5.57783 35.8629 8.18523C37.2574 10.7926 38 13.8529 38 18.1411V21.8589C38 26.1471 37.2574 29.2074 35.8629 31.8148C34.4685 34.4222 32.4222 36.4685 29.8148 37.8629C27.2074 39.2574 24.1471 40 19.8589 40H18.1411C13.8529 40 10.7926 39.2574 8.18523 37.8629C5.57783 36.4685 3.53152 34.4222 2.13706 31.8148C0.742605 29.2074 0 26.1471 0 21.8589L0 18.1411C0 13.8529 0.742605 10.7926 2.13706 8.18523C3.53152 5.57783 5.57783 3.53152 8.18523 2.13706C10.7926 0.742605 13.8529 0 18.1411 0Z" fill="#6A26DA"/>
<path d="M17.8532 10.7237C18.2009 9.59461 19.7991 9.59461 20.1468 10.7237L21.8742 16.3322C21.9911 16.7118 22.2882 17.0089 22.6678 17.1258L28.2763 18.8532C29.4054 19.2009 29.4054 20.7991 28.2763 21.1468L22.6678 22.8742C22.2882 22.9911 21.9911 23.2882 21.8742 23.6678L20.1468 29.2763C19.7991 30.4054 18.2009 30.4054 17.8532 29.2763L16.1258 23.6678C16.0089 23.2882 15.7118 22.9911 15.3322 22.8742L9.72366 21.1468C8.59461 20.7991 8.59461 19.2009 9.72366 18.8532L15.3322 17.1258C15.7118 17.0089 16.0089 16.7118 16.1258 16.3322L17.8532 10.7237Z" fill="white"/>
</svg>
